<?xml version='1.0' encoding='UTF-8'?>
<!DOCTYPE svg PUBLIC "-//W3C//DTD SVG 1.0//EN" "http://www.w3.org/TR/2001/REC-SVG-20010904/DTD/svg10.dtd">
<svg viewBox="0 0 2560 120" xmlns="http://www.w3.org/2000/svg" xmlns:inkspace="http://www.inkscape.org/namespaces/inkscape" xmlns:xlink="http://www.w3.org/1999/xlink">
  <defs id="defs_block">
    <filter height="1.504" id="filter_blur" inkspace:collect="always" width="1.1575" x="-0.07875" y="-0.252">
      <feGaussianBlur id="feGaussianBlur3780" inkspace:collect="always" stdDeviation="4.2" />
    </filter>
  </defs>
  <title>blockdiag</title>
  <desc />
  <rect fill="rgb(0,0,0)" height="40" stroke="rgb(0,0,0)" style="filter:url(#filter_blur);opacity:0.7;fill-opacity:1" width="128" x="67" y="46" />
  <rect fill="rgb(0,0,0)" height="40" stroke="rgb(0,0,0)" style="filter:url(#filter_blur);opacity:0.7;fill-opacity:1" width="128" x="259" y="46" />
  <rect fill="rgb(0,0,0)" height="40" stroke="rgb(0,0,0)" style="filter:url(#filter_blur);opacity:0.7;fill-opacity:1" width="128" x="451" y="46" />
  <rect fill="rgb(0,0,0)" height="40" stroke="rgb(0,0,0)" style="filter:url(#filter_blur);opacity:0.7;fill-opacity:1" width="128" x="643" y="46" />
  <rect fill="rgb(0,0,0)" height="40" stroke="rgb(0,0,0)" style="filter:url(#filter_blur);opacity:0.7;fill-opacity:1" width="128" x="835" y="46" />
  <rect fill="rgb(0,0,0)" height="40" stroke="rgb(0,0,0)" style="filter:url(#filter_blur);opacity:0.7;fill-opacity:1" width="128" x="1027" y="46" />
  <rect fill="rgb(0,0,0)" height="40" stroke="rgb(0,0,0)" style="filter:url(#filter_blur);opacity:0.7;fill-opacity:1" width="128" x="1219" y="46" />
  <rect fill="rgb(0,0,0)" height="40" stroke="rgb(0,0,0)" style="filter:url(#filter_blur);opacity:0.7;fill-opacity:1" width="128" x="1411" y="46" />
  <rect fill="rgb(0,0,0)" height="40" stroke="rgb(0,0,0)" style="filter:url(#filter_blur);opacity:0.7;fill-opacity:1" width="128" x="1603" y="46" />
  <rect fill="rgb(0,0,0)" height="40" stroke="rgb(0,0,0)" style="filter:url(#filter_blur);opacity:0.7;fill-opacity:1" width="128" x="1795" y="46" />
  <rect fill="rgb(0,0,0)" height="40" stroke="rgb(0,0,0)" style="filter:url(#filter_blur);opacity:0.7;fill-opacity:1" width="128" x="1987" y="46" />
  <rect fill="rgb(0,0,0)" height="40" stroke="rgb(0,0,0)" style="filter:url(#filter_blur);opacity:0.7;fill-opacity:1" width="128" x="2179" y="46" />
  <rect fill="rgb(0,0,0)" height="40" stroke="rgb(0,0,0)" style="filter:url(#filter_blur);opacity:0.7;fill-opacity:1" width="128" x="2371" y="46" />
  <rect fill="rgb(255,255,255)" height="40" stroke="rgb(0,0,0)" width="128" x="64" y="40" />
  <text fill="rgb(0,0,0)" font-family="sans-serif" font-size="11" font-style="normal" font-weight="normal" text-anchor="middle" textLength="73" x="128" y="66">Conv1-5x5x12</text>
  <rect fill="rgb(255,255,255)" height="40" stroke="rgb(0,0,0)" width="128" x="256" y="40" />
  <text fill="rgb(0,0,0)" font-family="sans-serif" font-size="11" font-style="normal" font-weight="normal" text-anchor="middle" textLength="115" x="320" y="66">BatchNormalization1</text>
  <rect fill="rgb(255,255,255)" height="40" stroke="rgb(0,0,0)" width="128" x="448" y="40" />
  <text fill="rgb(0,0,0)" font-family="sans-serif" font-size="11" font-style="normal" font-weight="normal" text-anchor="middle" textLength="67" x="512" y="66">Activation1</text>
  <rect fill="rgb(255,255,255)" height="40" stroke="rgb(0,0,0)" width="128" x="640" y="40" />
  <text fill="rgb(0,0,0)" font-family="sans-serif" font-size="11" font-style="normal" font-weight="normal" text-anchor="middle" textLength="49" x="704" y="66">Maxpool1</text>
  <rect fill="rgb(255,255,255)" height="40" stroke="rgb(0,0,0)" width="128" x="832" y="40" />
  <text fill="rgb(0,0,0)" font-family="sans-serif" font-size="11" font-style="normal" font-weight="normal" text-anchor="middle" textLength="67" x="896" y="66">Dropout-0.2</text>
  <rect fill="rgb(255,255,255)" height="40" stroke="rgb(0,0,0)" width="128" x="1024" y="40" />
  <text fill="rgb(0,0,0)" font-family="sans-serif" font-size="11" font-style="normal" font-weight="normal" text-anchor="middle" textLength="73" x="1088" y="66">Conv2-7x7x24</text>
  <rect fill="rgb(255,255,255)" height="40" stroke="rgb(0,0,0)" width="128" x="1216" y="40" />
  <text fill="rgb(0,0,0)" font-family="sans-serif" font-size="11" font-style="normal" font-weight="normal" text-anchor="middle" textLength="115" x="1280" y="66">BatchNormalization2</text>
  <rect fill="rgb(255,255,255)" height="40" stroke="rgb(0,0,0)" width="128" x="1408" y="40" />
  <text fill="rgb(0,0,0)" font-family="sans-serif" font-size="11" font-style="normal" font-weight="normal" text-anchor="middle" textLength="67" x="1472" y="66">Activation2</text>
  <rect fill="rgb(255,255,255)" height="40" stroke="rgb(0,0,0)" width="128" x="1600" y="40" />
  <text fill="rgb(0,0,0)" font-family="sans-serif" font-size="11" font-style="normal" font-weight="normal" text-anchor="middle" textLength="49" x="1664" y="66">Maxpool2</text>
  <rect fill="rgb(255,255,255)" height="40" stroke="rgb(0,0,0)" width="128" x="1792" y="40" />
  <text fill="rgb(0,0,0)" font-family="sans-serif" font-size="11" font-style="normal" font-weight="normal" text-anchor="middle" textLength="67" x="1856" y="66">Dropout-0.4</text>
  <rect fill="rgb(255,255,255)" height="40" stroke="rgb(0,0,0)" width="128" x="1984" y="40" />
  <text fill="rgb(0,0,0)" font-family="sans-serif" font-size="11" font-style="normal" font-weight="normal" text-anchor="middle" textLength="43" x="2048" y="66">Flatten</text>
  <rect fill="rgb(255,255,255)" height="40" stroke="rgb(0,0,0)" width="128" x="2176" y="40" />
  <text fill="rgb(0,0,0)" font-family="sans-serif" font-size="11" font-style="normal" font-weight="normal" text-anchor="middle" textLength="103" x="2240" y="66">FullyConnected-96</text>
  <rect fill="rgb(255,255,255)" height="40" stroke="rgb(0,0,0)" width="128" x="2368" y="40" />
  <text fill="rgb(0,0,0)" font-family="sans-serif" font-size="11" font-style="normal" font-weight="normal" text-anchor="middle" textLength="37" x="2432" y="66">Logits</text>
  <path d="M 192 60 L 248 60" fill="none" stroke="rgb(0,0,0)" />
  <polygon fill="rgb(0,0,0)" points="255,60 248,56 248,64 255,60" stroke="rgb(0,0,0)" />
  <path d="M 384 60 L 440 60" fill="none" stroke="rgb(0,0,0)" />
  <polygon fill="rgb(0,0,0)" points="447,60 440,56 440,64 447,60" stroke="rgb(0,0,0)" />
  <path d="M 576 60 L 632 60" fill="none" stroke="rgb(0,0,0)" />
  <polygon fill="rgb(0,0,0)" points="639,60 632,56 632,64 639,60" stroke="rgb(0,0,0)" />
  <path d="M 768 60 L 824 60" fill="none" stroke="rgb(0,0,0)" />
  <polygon fill="rgb(0,0,0)" points="831,60 824,56 824,64 831,60" stroke="rgb(0,0,0)" />
  <path d="M 960 60 L 1016 60" fill="none" stroke="rgb(0,0,0)" />
  <polygon fill="rgb(0,0,0)" points="1023,60 1016,56 1016,64 1023,60" stroke="rgb(0,0,0)" />
  <path d="M 1152 60 L 1208 60" fill="none" stroke="rgb(0,0,0)" />
  <polygon fill="rgb(0,0,0)" points="1215,60 1208,56 1208,64 1215,60" stroke="rgb(0,0,0)" />
  <path d="M 1344 60 L 1400 60" fill="none" stroke="rgb(0,0,0)" />
  <polygon fill="rgb(0,0,0)" points="1407,60 1400,56 1400,64 1407,60" stroke="rgb(0,0,0)" />
  <path d="M 1536 60 L 1592 60" fill="none" stroke="rgb(0,0,0)" />
  <polygon fill="rgb(0,0,0)" points="1599,60 1592,56 1592,64 1599,60" stroke="rgb(0,0,0)" />
  <path d="M 1728 60 L 1784 60" fill="none" stroke="rgb(0,0,0)" />
  <polygon fill="rgb(0,0,0)" points="1791,60 1784,56 1784,64 1791,60" stroke="rgb(0,0,0)" />
  <path d="M 1920 60 L 1976 60" fill="none" stroke="rgb(0,0,0)" />
  <polygon fill="rgb(0,0,0)" points="1983,60 1976,56 1976,64 1983,60" stroke="rgb(0,0,0)" />
  <path d="M 2112 60 L 2168 60" fill="none" stroke="rgb(0,0,0)" />
  <polygon fill="rgb(0,0,0)" points="2175,60 2168,56 2168,64 2175,60" stroke="rgb(0,0,0)" />
  <path d="M 2304 60 L 2360 60" fill="none" stroke="rgb(0,0,0)" />
  <polygon fill="rgb(0,0,0)" points="2367,60 2360,56 2360,64 2367,60" stroke="rgb(0,0,0)" />
</svg>
